<?xml version="1.0" standalone="no"?>
<!DOCTYPE svg PUBLIC "-//W3C//DTD SVG 20010904//EN"
 "http://www.w3.org/TR/2001/REC-SVG-20010904/DTD/svg10.dtd">
<svg version="1.0" xmlns="http://www.w3.org/2000/svg"
 width="1024.000000pt" height="1024.000000pt" viewBox="0 0 1024.000000 1024.000000"
 preserveAspectRatio="xMidYMid meet">
<metadata>
Created by potrace 1.16, written by Peter Selinger 2001-2019
</metadata>
<g transform="translate(0.000000,1024.000000) scale(0.100000,-0.100000)"
fill="#000000" stroke="none">
<path d="M4980 8764 c-14 -2 -68 -11 -120 -20 -119 -20 -331 -89 -458 -149
-164 -78 -341 -203 -472 -334 -140 -141 -229 -265 -314 -436 -132 -266 -187
-521 -172 -805 14 -273 62 -469 172 -700 174 -364 484 -663 846 -817 l87 -37
3 -285 3 -286 29 -59 c16 -33 49 -79 73 -103 l43 -43 2 -1578 3 -1577 28 -57
c32 -64 80 -111 146 -142 43 -20 63 -21 306 -21 245 0 263 1 306 21 60 28 119
87 150 150 l24 49 5 1581 5 1580 37 33 c21 18 52 63 70 99 l33 66 5 285 c4
239 7 285 20 291 8 5 58 28 110 53 262 123 518 345 682 592 75 112 178 324
212 432 173 556 68 1139 -281 1573 -89 110 -255 266 -361 338 -195 134 -435
234 -678 283 -87 17 -150 22 -314 25 -113 1 -216 0 -230 -2z m455 -165 c325
-40 650 -202 887 -442 207 -208 340 -441 409 -715 25 -97 31 -145 36 -282 15
-436 -103 -787 -375 -1113 -161 -193 -432 -380 -664 -456 -66 -22 -68 -23 -68
-57 l0 -34 -474 0 -475 0 -3 36 c-3 35 -3 36 -107 75 -245 92 -443 231 -616
431 -213 247 -325 489 -376 810 -16 104 -6 467 15 563 45 201 142 410 270 585
74 100 225 247 336 325 170 120 404 219 610 259 176 34 397 39 595 15z m224
-3466 c-2 -155 -6 -216 -17 -239 l-14 -31 -420 -7 c-381 -7 -421 -6 -444 9
-47 31 -54 67 -54 280 l0 195 476 0 476 0 -3 -207z m-151 -705 c1 -148 -1
-268 -5 -268 -5 0 -55 17 -113 37 -95 34 -115 37 -210 37 -99 0 -111 -2 -212
-41 l-108 -41 0 274 0 274 323 -2 322 -3 3 -267z m-130 -401 l126 -42 4 -1193
c2 -850 0 -1202 -7 -1225 -7 -19 -25 -47 -42 -63 l-30 -29 -231 -3 -230 -3
-38 25 c-75 50 -70 -46 -70 1295 l0 1200 133 41 c72 23 137 43 142 46 26 10
129 -10 243 -49z"/>
<path d="M5020 8439 c-151 -17 -351 -79 -502 -155 -121 -61 -283 -182 -389
-291 -116 -120 -165 -190 -239 -338 -149 -301 -171 -673 -60 -1010 138 -419
478 -764 901 -913 167 -59 276 -77 464 -77 190 0 258 10 410 62 280 95 554
290 719 511 71 95 173 289 206 392 50 158 64 255 64 455 1 210 -10 286 -65
443 -72 204 -189 382 -357 543 -198 191 -413 302 -696 360 -118 24 -328 33
-456 18z m437 -168 c321 -66 581 -237 765 -501 96 -139 177 -317 182 -400 1
-19 5 -40 9 -47 11 -18 26 -150 27 -233 0 -78 -19 -227 -44 -341 -22 -101
-118 -325 -135 -315 -4 3 -8 -1 -8 -9 0 -42 -179 -249 -292 -339 -120 -94
-231 -160 -231 -136 0 6 5 11 10 11 6 1 15 3 20 4 6 1 16 3 23 4 6 2 3 7 -8
12 -19 9 -19 9 2 5 14 -2 32 5 48 20 14 13 30 24 36 24 11 0 183 140 189 155
3 6 8 9 11 8 3 -1 11 9 17 22 11 23 9 25 -13 25 -14 0 -25 6 -25 13 0 8 -3 8
-8 1 -11 -15 -207 -174 -216 -174 -7 0 -16 -6 -60 -45 -16 -14 -34 -25 -40
-25 -21 -1 -86 -36 -79 -43 3 -4 -12 -7 -34 -7 -23 0 -43 -4 -45 -8 -1 -5 -43
-19 -93 -32 -106 -27 -366 -40 -437 -22 -24 6 -68 16 -98 22 -93 19 -222 61
-290 93 -64 31 -190 104 -200 116 -3 3 -25 19 -49 35 -24 15 -79 63 -122 105
-45 44 -77 69 -76 59 1 -9 5 -14 9 -12 4 3 8 -3 8 -12 0 -10 7 -26 17 -36 9
-10 13 -18 10 -18 -14 0 -127 162 -120 173 3 7 2 9 -2 4 -18 -16 -132 232
-158 348 -30 130 -37 188 -37 322 0 322 119 602 349 822 131 126 244 202 397
269 245 108 526 137 791 83z"/>
<path d="M6040 7646 c0 -9 -5 -16 -11 -16 -8 0 -7 -5 1 -15 11 -13 11 -18 0
-28 -10 -9 -11 -9 -6 1 4 6 2 12 -3 12 -18 0 -12 -15 14 -40 13 -12 29 -38 36
-57 6 -19 15 -30 21 -27 6 4 8 2 5 -3 -7 -11 30 -104 45 -114 5 -3 6 -13 2
-22 -3 -9 -2 -17 2 -17 5 0 9 -12 10 -27 1 -16 4 -48 7 -73 3 -25 6 -72 7
-105 0 -46 3 -56 11 -42 5 9 18 17 29 17 16 0 19 12 25 95 5 59 3 105 -3 123
-9 23 -14 39 -27 92 0 3 -7 22 -14 44 -10 29 -16 35 -23 25 -7 -10 -8 -8 -3 7
3 13 0 28 -10 38 -9 8 -14 17 -13 19 3 3 -36 55 -79 104 -18 20 -23 22 -23 9z"/>
<path d="M6401 7278 c-1 -31 -5 -38 -21 -38 -14 0 -20 -7 -21 -22 -1 -22 -1
-22 -8 2 -4 14 -5 -29 -3 -95 2 -66 -1 -151 -8 -190 -6 -38 -11 -85 -11 -103
1 -19 -3 -31 -8 -27 -8 4 -23 -41 -23 -72 0 -5 -7 -17 -14 -28 -8 -11 -14 -29
-14 -41 0 -12 -7 -27 -15 -34 -21 -17 -19 -30 5 -30 13 0 20 7 20 19 0 12 9
20 25 23 14 3 25 1 25 -3 0 -5 4 -9 8 -9 12 0 32 69 25 85 -2 8 -1 20 3 27 5
7 7 23 5 36 -1 12 2 22 8 22 6 0 11 9 11 21 0 11 4 28 10 39 7 14 6 17 -7 16
-10 0 -19 8 -21 19 -2 11 -8 22 -11 25 -4 3 -6 49 -3 103 4 87 6 97 23 97 16
0 19 -8 19 -41 0 -28 4 -39 13 -37 16 6 22 135 7 153 -6 7 -8 19 -5 27 3 7 1
32 -4 53 l-9 40 -1 -37z"/>
<path d="M4520 7076 c0 -25 -5 -46 -12 -48 -6 -2 -12 -12 -14 -21 -1 -9 2 -15
7 -11 11 6 41 -21 32 -30 -3 -3 -12 -1 -20 6 -11 8 -12 7 -7 -6 3 -9 9 -16 13
-16 4 0 13 -10 18 -22 17 -36 64 -88 80 -88 8 0 12 -4 9 -9 -5 -7 57 -68 293
-290 24 -22 48 -38 54 -34 6 4 7 1 3 -6 -9 -13 141 -164 155 -155 4 2 11 -1
15 -7 5 -8 3 -9 -7 -4 -12 8 -12 6 0 -8 7 -9 20 -17 27 -17 8 0 14 -7 14 -16
0 -21 45 16 85 69 16 20 34 37 40 37 16 0 55 47 55 65 0 8 5 15 11 15 5 0 7
-6 4 -12 -4 -7 1 -4 9 6 9 11 16 23 16 28 0 4 6 8 14 8 17 0 118 109 111 120
-3 4 4 6 15 3 18 -5 25 5 21 30 0 4 7 7 17 7 17 0 57 36 61 55 4 17 23 35 31
30 9 -5 38 25 55 58 6 12 16 21 22 20 6 -1 17 4 23 12 10 12 9 15 -9 15 -14 0
-21 6 -21 20 0 33 -37 24 -88 -22 -26 -23 -77 -73 -113 -110 -36 -37 -73 -68
-82 -68 -16 0 -22 -12 -18 -33 1 -5 -2 -6 -6 -4 -5 3 -60 -43 -123 -103 -86
-82 -118 -107 -129 -100 -14 7 -326 290 -341 309 -3 4 -30 26 -60 50 -70 57
-180 171 -180 188 0 7 -4 13 -9 13 -9 0 -23 36 -35 93 -11 46 -36 34 -36 -17z"/>
<path d="M5500 6190 c-9 -13 -18 -16 -24 -10 -14 14 -36 -8 -36 -37 0 -21 -2
-23 -15 -13 -12 10 -16 8 -24 -12 -11 -28 -41 -57 -41 -39 0 7 -5 9 -10 6 -6
-4 -8 -10 -5 -15 3 -5 -6 -12 -21 -16 -19 -5 -22 -9 -12 -15 11 -7 10 -11 -2
-19 -21 -13 -53 -13 -44 1 4 7 -3 6 -17 -2 -13 -7 -28 -12 -33 -11 -4 2 -14
-2 -22 -9 -11 -9 -20 -8 -39 5 -30 20 -30 20 -49 0 -26 -25 -20 -44 14 -44 17
0 30 5 30 10 0 6 9 10 20 10 11 0 20 -5 20 -11 0 -9 20 -10 67 -6 59 6 71 11
103 42 20 19 42 35 50 35 7 0 10 3 7 7 -11 11 23 41 41 37 11 -3 22 6 33 28 9
18 22 32 28 31 6 -2 11 11 11 32 0 40 -9 44 -30 15z"/>
<path d="M7195 8100 c-19 -33 -43 -57 -72 -72 -24 -13 -43 -27 -43 -31 0 -4
15 -14 33 -22 37 -15 61 -39 93 -92 l22 -37 15 30 c18 34 59 74 105 100 17 10
32 21 32 24 0 3 -18 14 -41 24 -28 12 -51 34 -76 72 -20 30 -36 54 -37 54 -1
0 -15 -22 -31 -50z"/>
<path d="M3130 8110 c-15 -36 -71 -87 -105 -96 -35 -9 -31 -17 20 -42 32 -15
54 -36 73 -67 15 -24 30 -45 34 -45 4 0 14 12 22 28 18 34 51 65 94 86 17 9
32 20 32 24 0 4 -17 16 -37 27 -21 11 -53 40 -71 65 -19 25 -38 46 -42 48 -4
1 -13 -11 -20 -28z"/>
<path d="M2726 7556 c-61 -131 -120 -185 -251 -230 -16 -6 -4 -15 60 -45 99
-47 144 -94 197 -209 21 -47 43 -81 47 -76 4 5 18 36 31 69 47 119 102 177
217 227 29 13 53 25 53 28 0 3 -28 16 -62 29 -93 36 -164 111 -207 219 -18 45
-35 82 -37 82 -3 0 -24 -42 -48 -94z"/>
<path d="M7566 7581 c-52 -133 -114 -198 -223 -237 -29 -10 -53 -21 -53 -24 0
-3 27 -16 61 -29 104 -42 164 -106 219 -239 l28 -66 40 86 c51 111 95 158 193
207 l79 40 -74 35 c-96 46 -154 109 -197 216 -18 44 -36 80 -39 80 -4 0 -19
-31 -34 -69z"/>
<path d="M2912 6535 c-31 -64 -40 -72 -138 -131 -17 -10 -14 -14 31 -37 59
-30 95 -66 125 -127 l23 -45 22 50 c29 63 66 102 122 127 23 10 43 21 43 23 0
2 -19 13 -42 23 -53 24 -89 62 -123 130 -14 28 -27 52 -28 52 -2 0 -17 -29
-35 -65z"/>
<path d="M7382 6547 c-26 -61 -58 -95 -119 -127 -24 -12 -43 -24 -43 -26 0 -1
19 -12 43 -22 49 -22 101 -78 123 -133 9 -21 19 -39 23 -39 4 0 17 21 29 48
28 62 62 97 117 121 25 11 45 22 45 25 0 2 -20 14 -45 26 -51 25 -86 62 -121
131 -13 27 -26 49 -27 49 -2 0 -13 -24 -25 -53z"/>
<path d="M7444 5473 c-49 -112 -106 -172 -192 -203 -34 -13 -62 -24 -62 -26 0
-1 26 -14 57 -29 90 -41 137 -86 181 -173 21 -42 41 -87 44 -100 10 -37 22
-25 53 55 38 97 101 167 192 216 l67 35 -40 11 c-94 25 -184 119 -226 237 -12
35 -26 64 -29 64 -3 0 -23 -39 -45 -87z"/>
<path d="M2975 5205 l-25 -24 0 -235 c0 -249 4 -276 47 -295 35 -16 57 -14 86
9 24 19 26 28 29 108 l3 87 98 3 97 3 0 -89 c0 -80 2 -91 23 -110 26 -24 57
-28 90 -10 45 24 46 31 47 286 l0 243 -25 24 c-25 26 -57 31 -98 16 -33 -13
-41 -40 -42 -131 l0 -75 -92 -3 -93 -3 0 69 c0 79 -14 128 -40 142 -33 18 -79
11 -105 -15z"/>
<path d="M2381 5194 c-28 -35 -26 -69 4 -99 19 -20 34 -25 73 -25 l50 0 7
-195 c7 -193 8 -196 33 -215 30 -24 53 -25 92 -5 17 9 31 17 32 18 1 1 4 90 7
197 l6 195 52 3 c42 2 56 8 73 29 27 34 26 74 -3 101 -22 21 -32 22 -214 22
l-192 0 -20 -26z"/>
<path d="M3640 5200 c-19 -19 -20 -33 -20 -262 1 -175 4 -247 13 -259 25 -33
55 -39 192 -39 174 0 205 13 205 88 0 57 -33 72 -149 72 l-91 0 0 35 0 35 78
0 c69 0 81 3 100 23 29 31 28 72 -3 102 -21 22 -33 25 -100 25 -73 0 -75 1
-75 25 0 25 0 25 95 25 88 0 98 2 120 25 31 30 33 77 5 105 -18 18 -33 20
-185 20 -152 0 -167 -2 -185 -20z"/>
<path d="M4120 4189 c0 -6 -10 -10 -22 -9 -39 4 -46 1 -77 -30 -19 -20 -28
-36 -24 -47 4 -11 3 -14 -5 -9 -8 4 -10 2 -6 -7 3 -8 1 -17 -3 -20 -5 -3 -10
-151 -11 -329 -2 -178 -6 -339 -9 -358 -10 -58 -32 -90 -76 -111 -53 -24 -81
-23 -135 1 -48 22 -72 46 -102 102 -19 35 -20 58 -20 340 0 167 -3 321 -7 342
-4 28 -19 52 -54 87 -45 45 -53 49 -96 49 -37 0 -44 -3 -33 -11 12 -8 10 -9
-8 -4 -29 8 -67 -15 -88 -56 -21 -42 -26 -128 -27 -464 -1 -297 2 -325 50
-420 25 -51 99 -135 118 -135 6 0 20 -8 31 -18 38 -34 72 -51 93 -45 18 4 20
2 15 -13 -4 -11 -4 -16 1 -12 12 11 75 -41 68 -58 -10 -25 -98 -63 -200 -85
-105 -23 -152 -49 -178 -99 -20 -39 -19 -76 5 -125 16 -33 32 -48 75 -68 70
-35 141 -36 241 -2 94 31 154 70 243 155 9 9 64 60 123 113 102 94 199 200
168 183 -12 -6 -12 -5 0 6 27 23 62 88 56 104 -3 8 -2 12 4 9 6 -3 11 1 11 9
1 16 4 28 9 44 1 4 3 12 4 17 1 6 7 23 14 38 13 31 16 323 5 490 -4 71 -10 97
-20 97 -10 0 -13 19 -13 76 0 42 4 73 9 70 12 -8 21 18 21 60 0 30 -3 34 -27
34 -18 0 -24 3 -15 8 14 10 11 47 -6 64 -7 7 -12 8 -12 3 0 -6 -3 -6 -8 0 -12
17 -82 46 -82 34z"/>
<path d="M1210 4180 c-13 -9 -13 -10 0 -10 12 -1 12 -3 -2 -14 -10 -7 -16 -15
-13 -18 2 -2 -7 -4 -22 -4 -14 1 -28 -5 -31 -13 -3 -8 0 -11 5 -8 5 3 9 -3 9
-13 0 -14 -3 -16 -13 -8 -10 8 -13 5 -13 -14 0 -14 -3 -28 -7 -32 -9 -8 -14
-924 -6 -975 4 -21 21 -50 48 -77 39 -42 45 -44 97 -44 65 0 110 26 142 80 18
30 21 54 23 180 l2 145 28 17 c39 25 57 22 96 -12 19 -16 37 -26 41 -22 4 4 6
2 4 -4 -2 -6 33 -48 78 -95 44 -46 121 -126 170 -177 102 -107 127 -123 193
-124 122 0 205 115 155 215 -20 39 -94 113 -109 109 -5 -2 -7 0 -2 4 8 8 -90
114 -106 114 -4 0 -5 -5 -1 -12 4 -7 3 -8 -5 -4 -6 4 -9 12 -5 18 8 13 -45 68
-61 62 -7 -3 -15 2 -19 11 -4 11 -2 14 7 9 8 -5 9 -4 2 4 -5 5 -19 12 -30 14
-11 2 -20 10 -20 18 0 8 -7 20 -15 25 -17 11 -22 24 -28 78 -4 33 -2 36 14 30
16 -6 17 -4 7 8 -13 16 0 39 22 39 5 0 16 9 23 20 7 12 17 18 22 15 5 -3 15 4
23 15 7 11 16 17 20 14 3 -3 13 8 22 25 8 17 18 31 21 31 3 0 2 -6 -2 -12 -3
-7 6 1 21 17 14 17 32 30 38 30 7 0 11 9 9 19 -2 11 1 15 7 11 6 -3 11 -1 11
5 0 6 8 10 18 8 11 -2 17 3 16 14 -1 9 5 19 13 22 9 4 12 2 7 -7 -5 -7 0 -6
12 3 28 22 34 34 22 41 -6 4 -3 9 9 13 17 6 20 15 19 66 -1 53 -4 62 -33 91
-18 17 -33 35 -33 40 0 4 -17 6 -37 4 -31 -4 -33 -3 -13 4 24 8 24 8 -10 14
-19 3 -43 5 -54 5 -17 -1 -17 -2 -2 -14 15 -11 14 -12 -8 -10 -13 0 -21 5 -18
11 3 5 -9 0 -27 -11 -18 -12 -33 -25 -34 -30 -2 -10 -55 -64 -63 -64 -3 0 -2
6 1 13 3 6 0 3 -7 -7 -7 -11 -53 -62 -103 -113 -49 -51 -97 -101 -106 -110 -9
-10 -24 -24 -35 -31 -10 -7 -12 -10 -4 -7 8 3 7 0 -4 -7 -45 -31 -76 -60 -71
-68 3 -5 0 -12 -6 -16 -8 -4 -9 -3 -5 4 4 7 4 12 1 12 -9 0 -35 -27 -30 -32 4
-4 -46 -3 -55 2 -3 1 -7 2 -10 2 -3 0 -5 55 -5 124 0 68 3 116 7 106 5 -9 5
-2 2 15 -3 18 -6 61 -6 96 0 52 -4 66 -20 76 -16 10 -19 10 -13 -1 3 -7 0 -5
-8 5 -8 9 -20 17 -28 17 -8 0 -21 5 -29 10 -13 9 -13 11 0 20 15 10 -11 7 -64
-7 -12 -3 -16 -1 -12 6 9 14 -4 14 -24 1z"/>
<path d="M2685 4180 c-103 -30 -121 -36 -128 -47 -4 -7 -19 -11 -33 -9 -13 3
-24 0 -24 -5 0 -5 -6 -9 -14 -9 -18 0 -58 -49 -50 -61 3 -5 -4 -9 -15 -9 -12
0 -21 -6 -21 -13 0 -7 -16 -19 -35 -26 -19 -7 -35 -17 -35 -23 0 -7 5 -6 14 1
15 13 32 -1 21 -18 -7 -12 -45 -10 -45 2 0 4 -4 5 -10 2 -5 -3 -10 -14 -10
-24 0 -10 -7 -34 -15 -52 l-16 -34 6 35 c6 32 4 30 -24 -21 -80 -148 -78 -391
3 -546 61 -116 167 -214 287 -264 62 -26 92 -32 181 -36 118 -6 162 1 278 48
86 34 174 94 164 111 -4 6 -3 8 4 4 15 -9 42 33 42 66 0 92 -98 170 -191 151
-16 -3 -26 -10 -22 -16 3 -6 1 -7 -5 -3 -15 9 -102 -35 -95 -48 3 -6 3 -8 -1
-4 -4 3 -26 0 -49 -8 -64 -23 -134 -21 -192 5 -66 29 -101 64 -133 130 -23 49
-24 54 -9 63 10 5 15 13 12 19 -4 5 3 9 14 9 12 0 21 -5 21 -11 0 -7 76 -9
243 -7 210 3 248 6 285 22 28 12 41 23 38 32 -4 10 3 14 24 14 20 0 35 8 50
30 12 17 17 30 11 30 -6 0 -11 5 -11 10 0 6 6 9 13 8 7 -2 11 6 10 20 -2 13 1
21 5 18 5 -3 5 18 2 47 -4 29 -5 57 -3 64 3 6 -1 20 -7 30 -8 13 -10 13 -7 2
3 -9 1 -22 -4 -30 -6 -9 -7 -2 -5 23 5 36 -26 121 -42 115 -4 -1 -7 2 -7 6 0
5 -8 13 -18 18 -9 6 -14 16 -11 22 4 7 4 9 -1 5 -10 -9 -47 10 -41 21 3 4 -6
6 -19 3 -16 -3 -25 -11 -25 -23 0 -16 -8 -19 -41 -19 l-41 0 4 68 c3 67 2 69
-21 68 -24 -1 -24 -3 -22 -68 2 -63 1 -68 -19 -68 -20 0 -21 -4 -18 -77 2 -61
6 -78 18 -79 8 -1 43 -2 78 -3 55 -1 62 -3 62 -21 0 -17 -7 -20 -40 -20 -33 0
-40 -3 -40 -20 0 -11 -4 -20 -9 -20 -5 0 -11 9 -14 20 -3 11 -12 20 -21 20
-19 0 -21 -16 -3 -23 6 -3 -1 -10 -18 -16 -32 -13 -358 -12 -370 1 -4 4 2 23
14 43 11 20 21 43 21 51 0 8 5 14 10 14 6 0 10 11 10 25 0 18 5 25 20 25 13 0
20 7 20 20 0 13 7 20 19 20 11 0 22 6 25 13 5 10 7 10 12 0 4 -8 27 -13 65
-13 l59 0 0 100 0 100 -67 2 c-57 1 -60 2 -20 5 26 2 45 8 42 14 -7 11 -28 10
-70 -1z"/>
<path d="M6290 4180 c0 -7 -8 -9 -20 -5 -12 4 -20 2 -20 -5 0 -6 -5 -8 -11 -4
-6 3 -14 3 -18 -2 -3 -5 -14 -13 -24 -19 -10 -5 -28 -26 -40 -44 -12 -19 -16
-32 -9 -27 8 5 10 2 6 -8 -3 -9 -10 -13 -15 -10 -5 3 -9 -199 -9 -485 0 -427
2 -496 16 -531 9 -22 23 -40 31 -40 8 0 12 -4 9 -9 -3 -5 11 -17 30 -26 54
-25 126 -16 166 21 50 48 58 78 58 234 l0 140 134 0 c79 0 146 5 163 12 15 6
36 10 47 9 11 -2 16 2 12 8 -5 7 2 11 17 11 49 0 165 100 199 172 36 75 40 87
34 96 -3 6 -2 13 4 17 13 8 13 62 0 70 -5 3 -10 14 -10 23 0 15 2 15 11 2 7
-11 9 -1 5 35 -3 28 -6 58 -6 68 -1 10 -6 15 -12 11 -7 -5 -9 0 -5 15 4 17 2
21 -9 17 -11 -4 -13 0 -8 19 5 20 3 24 -10 19 -12 -4 -16 0 -16 16 0 11 -4 19
-9 16 -11 -7 -32 49 -23 59 4 3 -2 3 -13 -1 -14 -6 -17 -4 -12 9 7 19 -2 26
-37 29 -14 1 -23 4 -22 6 5 5 -41 50 -64 62 -32 17 -94 22 -312 27 -150 3
-208 1 -208 -7z m373 -268 c14 8 54 -11 63 -31 11 -27 17 -64 18 -113 1 -27 4
-48 9 -48 4 0 7 -4 7 -10 0 -5 -3 -9 -7 -9 -20 3 -34 -2 -28 -11 3 -5 0 -10
-9 -10 -8 0 -16 -5 -18 -12 -5 -14 -16 -16 -137 -31 -93 -11 -94 -11 -113 13
-16 20 -19 38 -17 133 2 97 4 110 20 114 11 3 17 8 15 12 -2 3 39 4 91 1 52
-3 100 -2 106 2z"/>
<path d="M7505 4166 c-33 -11 -64 -26 -68 -33 -4 -7 -13 -13 -19 -13 -6 0 -5
7 3 18 13 16 13 16 -7 -1 -11 -9 -23 -15 -25 -13 -2 3 -15 -4 -29 -16 -14 -11
-19 -17 -12 -13 6 3 12 1 12 -4 0 -6 -7 -11 -15 -11 -8 0 -15 5 -15 11 0 5
-16 -2 -35 -17 -28 -21 -33 -29 -24 -40 9 -11 7 -14 -10 -14 -11 0 -21 -3 -21
-8 0 -4 -10 -12 -22 -17 -12 -6 -23 -18 -24 -28 -3 -24 -24 -48 -35 -41 -5 3
-10 -1 -10 -8 -3 -37 -20 -78 -32 -78 -6 0 -8 -26 -5 -72 3 -40 3 -65 1 -55
-9 33 -20 17 -21 -30 -1 -36 1 -44 9 -33 8 11 12 12 16 3 2 -8 22 -13 44 -13
50 0 53 -25 4 -34 -26 -5 -35 -12 -35 -26 0 -11 7 -20 15 -20 8 0 15 -9 15
-20 0 -13 -7 -20 -20 -20 -11 0 -20 5 -20 10 0 6 -10 10 -23 10 -16 0 -23 -6
-25 -22 -3 -32 19 -108 30 -108 6 0 8 -6 5 -14 -3 -8 -1 -16 4 -18 6 -2 11
-10 12 -18 2 -8 7 -22 12 -30 5 -8 10 -18 10 -21 0 -16 70 -102 102 -126 20
-16 47 -38 59 -50 31 -31 130 -79 201 -97 75 -20 211 -22 278 -5 50 12 117 40
190 81 59 32 175 155 212 224 42 79 63 161 63 248 0 92 -19 203 -32 185 -7
-10 -7 -7 -3 8 7 24 -21 93 -37 93 -5 0 -7 4 -4 8 3 5 -4 23 -15 42 -17 27
-23 31 -31 19 -8 -11 -9 -10 -4 4 9 27 -3 40 -21 25 -14 -11 -15 -10 -9 8 4
15 -3 29 -31 55 -20 18 -31 25 -23 14 13 -18 13 -19 0 -8 -8 6 -19 11 -25 11
-5 0 -11 6 -13 14 -2 9 0 8 7 -2 6 -8 11 -10 11 -4 0 14 -55 54 -75 54 -8 0
-15 5 -15 11 0 5 -4 7 -10 4 -5 -3 -10 -1 -10 5 0 6 -4 8 -10 5 -5 -3 -10 -2
-10 2 0 14 -68 35 -93 28 -17 -5 -19 -4 -7 4 18 13 5 15 -130 15 -67 1 -112
-5 -155 -18z m271 -262 c26 -7 31 -19 12 -28 -7 -3 -2 -3 12 0 14 4 22 3 18
-1 -10 -10 22 -34 46 -35 15 0 16 -3 6 -15 -11 -14 -7 -19 13 -16 4 0 7 -5 7
-13 0 -8 7 -22 16 -31 19 -19 44 -106 44 -156 0 -51 -24 -124 -55 -164 -14
-19 -23 -35 -19 -35 8 0 -77 -64 -88 -66 -5 -1 -15 -2 -24 -3 -8 0 -13 -5 -10
-9 3 -5 -27 -10 -66 -11 -40 -1 -76 -5 -80 -7 -5 -3 -15 0 -23 6 -8 6 -19 9
-25 5 -5 -3 -10 -1 -10 5 0 7 -7 10 -15 6 -8 -3 -15 -2 -15 2 0 5 -18 19 -40
32 -22 14 -40 29 -40 34 0 4 -7 5 -16 2 -12 -4 -14 -1 -9 13 4 14 0 23 -14 31
-13 7 -18 16 -14 27 4 9 2 14 -3 10 -12 -7 -14 5 -19 112 -3 69 0 91 16 123
11 21 16 38 12 38 -4 0 2 7 13 15 10 8 15 15 10 15 -12 0 24 40 36 40 15 0 35
24 31 36 -2 7 6 10 23 6 19 -3 25 -1 20 7 -5 7 4 11 26 12 27 0 29 2 13 8 -11
5 11 6 51 3 43 -3 79 0 90 6 11 7 25 9 32 7 8 -3 25 -8 38 -11z"/>
<path d="M8474 4171 c-59 -27 -82 -50 -77 -75 4 -16 2 -18 -5 -7 -8 11 -14 1
-27 -43 -15 -50 -16 -110 -13 -514 3 -432 4 -459 23 -497 52 -104 190 -116
257 -23 21 30 23 46 28 188 l5 155 160 5 c160 6 201 13 188 33 -3 6 -1 7 5 3
29 -18 192 99 192 138 0 9 4 15 9 11 5 -3 22 20 37 52 22 45 29 74 32 143 5
94 -13 205 -30 194 -7 -4 -8 -2 -4 4 8 13 -20 72 -33 72 -5 0 -11 9 -14 21 -3
12 -10 18 -15 15 -5 -3 -16 2 -23 11 -12 14 -12 16 1 8 13 -8 13 -7 1 8 -7 9
-20 17 -27 17 -8 0 -14 4 -14 10 0 10 -109 64 -152 75 -15 4 -37 1 -50 -6 -20
-11 -22 -11 -10 3 11 14 -8 16 -195 17 -184 1 -213 -1 -249 -18z m303 -266
c55 0 96 3 90 7 -9 6 -9 8 0 8 6 0 15 -5 18 -11 4 -6 13 -8 21 -5 8 3 14 1 14
-4 0 -6 7 -10 15 -10 8 0 14 -3 13 -7 -4 -10 27 -54 33 -48 3 2 3 -24 1 -58
-3 -50 -8 -67 -29 -88 -18 -20 -21 -28 -11 -32 17 -6 -128 -21 -210 -21 -37
-1 -66 4 -70 11 -4 6 -6 63 -5 127 1 74 -2 114 -9 110 -5 -3 -4 3 3 15 8 11
16 17 19 13 3 -4 51 -7 107 -7z"/>
<path d="M7317 2469 c-46 -13 -56 -35 -57 -127 l0 -83 -92 3 -93 3 -5 88 c-4
73 -9 91 -24 103 -29 21 -92 18 -116 -6 -19 -19 -20 -33 -20 -265 l0 -246 26
-26 c21 -21 32 -24 62 -19 58 9 72 34 72 132 l0 84 95 0 95 0 0 -75 c0 -84 12
-118 47 -134 37 -17 62 -13 88 14 l25 24 0 241 c0 138 -4 249 -10 260 -13 24
-59 39 -93 29z"/>
<path d="M7795 2469 c-140 -18 -235 -132 -235 -284 0 -210 206 -355 386 -271
103 48 174 157 174 269 0 185 -142 310 -325 286z m103 -159 c61 -37 78 -120
41 -197 -62 -127 -219 -75 -219 72 0 116 90 179 178 125z"/>
<path d="M6465 2451 c-98 -45 -133 -146 -81 -235 27 -46 72 -75 158 -102 59
-18 77 -37 57 -60 -16 -20 -64 -17 -109 6 -53 27 -76 25 -110 -8 -36 -36 -31
-71 16 -111 95 -84 278 -61 339 43 19 32 25 57 25 100 0 97 -25 126 -141 165
-82 27 -104 42 -96 66 8 19 36 17 115 -6 37 -12 47 -11 70 2 15 8 31 27 36 42
12 34 -14 73 -65 99 -47 25 -160 24 -214 -1z"/>
<path d="M8270 2452 c-22 -18 -23 -22 -24 -269 -1 -233 0 -252 18 -272 25 -28
88 -29 116 -1 16 16 20 33 20 80 l0 60 58 0 c79 0 122 14 161 52 73 72 92 172
49 258 -42 83 -108 110 -269 110 -88 0 -111 -3 -129 -18z m250 -152 c27 -27
25 -46 -9 -81 -23 -23 -39 -29 -70 -29 l-41 0 0 65 0 65 50 0 c37 0 55 -5 70
-20z"/>
<path d="M2861 2418 c-5 -13 -15 -38 -21 -55 -15 -41 -79 -99 -137 -125 l-44
-19 61 -30 c68 -35 102 -73 135 -156 19 -47 25 -54 31 -38 35 102 83 159 166
198 l52 25 -52 22 c-62 27 -123 90 -147 153 -20 52 -31 58 -44 25z"/>
</g>
</svg>
