<?xml version="1.0" standalone="no"?>
<!DOCTYPE svg PUBLIC "-//W3C//DTD SVG 20010904//EN"
 "http://www.w3.org/TR/2001/REC-SVG-20010904/DTD/svg10.dtd">
<svg version="1.0" xmlns="http://www.w3.org/2000/svg"
 width="1024.000000pt" height="1024.000000pt" viewBox="0 0 1024.000000 1024.000000"
 preserveAspectRatio="xMidYMid meet">
<metadata>
Created by potrace 1.16, written by Peter Selinger 2001-2019
</metadata>
<g transform="translate(0.000000,1024.000000) scale(0.100000,-0.100000)"
fill="#000000" stroke="none">
<path d="M4990 8761 c-347 -38 -720 -201 -996 -438 -76 -65 -215 -229 -283
-333 -109 -169 -198 -387 -238 -585 -25 -125 -25 -498 0 -632 105 -569 459
-1027 972 -1258 l100 -45 6 -277 c7 -329 13 -356 106 -452 l54 -56 -5 -1030
c-3 -566 -2 -1280 2 -1585 7 -542 8 -556 29 -595 25 -46 71 -91 128 -126 40
-24 42 -24 320 -24 l280 0 47 27 c25 16 62 46 82 69 71 83 66 -39 66 1701 l0
1568 21 18 c45 36 69 68 101 131 l33 65 3 282 3 282 62 27 c307 132 618 404
789 690 164 275 235 523 245 850 4 141 2 203 -12 289 -44 282 -163 565 -324
769 -87 111 -250 269 -350 341 -219 157 -482 265 -756 312 -107 17 -379 26
-485 15z m430 -155 c194 -26 345 -73 521 -161 148 -75 287 -182 423 -327 248
-262 380 -557 407 -908 28 -364 -63 -719 -262 -1020 -89 -134 -290 -333 -433
-428 -130 -87 -180 -113 -311 -163 -99 -37 -100 -38 -103 -73 l-3 -36 -469 0
c-454 0 -470 1 -480 19 -5 11 -10 28 -10 39 0 15 -17 25 -77 47 -221 79 -420
211 -596 395 -326 340 -472 771 -427 1260 19 216 74 391 180 579 242 430 657
706 1162 775 135 18 347 19 478 2z m241 -3479 c-2 -216 -8 -260 -38 -271 -7
-3 -203 -6 -434 -6 -318 -1 -425 2 -436 11 -8 7 -23 30 -34 51 -18 35 -20 58
-19 232 1 107 4 197 8 200 3 4 219 5 480 4 l474 -3 -1 -218z m-151 -702 c0
-151 -4 -275 -8 -275 -5 0 -46 14 -93 31 -107 40 -182 59 -239 59 -37 0 -195
-46 -292 -85 -17 -7 -18 10 -18 269 l0 276 325 0 325 0 0 -275z m-160 -380
c41 -14 94 -33 118 -41 l42 -16 0 -1215 0 -1216 -26 -35 c-44 -57 -68 -62
-305 -62 -238 0 -255 4 -300 77 l-23 36 0 1210 -1 1209 135 44 c122 40 142 44
210 39 44 -2 106 -15 150 -30z"/>
<path d="M5015 8433 c-227 -28 -481 -128 -675 -266 -131 -93 -192 -147 -274
-246 -317 -380 -391 -910 -191 -1378 228 -533 743 -883 1305 -885 168 -1 274
14 404 57 327 107 619 325 789 590 130 204 198 408 217 657 25 335 -54 631
-238 887 -226 315 -523 502 -906 571 -102 19 -332 26 -431 13z m423 -153 c352
-63 652 -272 842 -584 100 -164 143 -301 160 -502 22 -273 -45 -570 -177 -784
-62 -100 -176 -233 -258 -300 -37 -30 -73 -60 -79 -66 -30 -29 -206 -126 -277
-154 -462 -178 -940 -85 -1329 260 -145 128 -288 352 -347 545 -48 154 -56
211 -57 395 0 188 9 241 71 418 70 199 248 417 463 569 125 89 342 178 500
207 118 22 356 20 488 -4z"/>
<path d="M7195 8092 c-20 -31 -44 -54 -72 -67 -23 -11 -42 -22 -43 -25 0 -3
19 -14 43 -25 27 -14 53 -37 74 -69 l31 -48 15 28 c19 36 52 66 95 88 40 20
40 30 2 46 -29 12 -68 50 -100 98 -15 22 -15 22 -45 -26z"/>
<path d="M3117 8084 c-19 -32 -39 -51 -67 -62 -22 -9 -40 -19 -40 -22 0 -3 19
-15 43 -28 25 -13 53 -40 71 -67 l28 -45 30 45 c17 26 47 54 69 66 22 11 39
23 39 27 0 4 -15 14 -33 23 -17 9 -47 36 -66 60 -18 24 -36 45 -40 46 -3 1
-18 -18 -34 -43z"/>
<path d="M7562 7561 c-44 -106 -94 -162 -189 -207 l-76 -37 45 -17 c107 -40
170 -105 223 -227 l32 -73 48 95 c53 107 91 145 193 193 35 17 58 33 53 37 -6
3 -11 4 -11 1 0 -8 -89 42 -129 73 -43 32 -104 126 -126 192 -9 27 -20 49 -24
49 -4 0 -22 -36 -39 -79z"/>
<path d="M2731 7555 c-53 -119 -127 -189 -246 -230 -16 -5 -9 -12 42 -35 113
-52 165 -107 214 -230 12 -30 25 -59 29 -63 4 -4 20 27 35 70 24 65 39 88 89
138 40 40 81 70 118 85 32 14 58 27 58 30 0 3 -22 13 -48 22 -99 36 -169 108
-217 226 -13 31 -27 58 -32 59 -5 2 -24 -31 -42 -72z"/>
<path d="M7382 6536 c-28 -63 -39 -75 -111 -115 l-53 -28 33 -12 c55 -19 98
-60 130 -123 l30 -60 28 58 c32 67 47 82 115 116 48 25 49 25 22 32 -39 10
-114 82 -142 138 -13 26 -25 48 -27 48 -1 0 -13 -25 -25 -54z"/>
<path d="M2916 6532 c-28 -54 -76 -101 -125 -121 l-32 -14 48 -24 c64 -33 80
-48 116 -112 l30 -53 24 51 c27 56 79 105 131 122 l34 11 -51 23 c-51 24 -96
74 -121 135 -7 16 -16 30 -21 30 -5 0 -20 -22 -33 -48z"/>
<path d="M7447 5467 c-51 -112 -107 -170 -201 -206 l-45 -17 64 -32 c34 -18
79 -50 100 -70 34 -34 95 -141 108 -192 9 -35 22 -22 50 53 34 92 98 165 186
211 l65 34 -42 11 c-45 13 -128 74 -160 118 -11 15 -32 57 -47 93 -15 36 -30
68 -34 72 -4 5 -24 -29 -44 -75z"/>
<path d="M3005 5221 c-45 -19 -47 -27 -46 -287 2 -260 3 -268 48 -285 28 -10
80 7 93 31 6 10 10 55 10 99 l0 81 100 0 100 0 0 -84 c0 -66 4 -89 18 -106 25
-31 85 -32 115 -2 22 22 22 28 22 267 0 239 0 245 -22 267 -30 30 -90 29 -115
-2 -14 -17 -18 -40 -18 -106 l0 -84 -100 0 -100 0 0 84 c0 65 -4 88 -17 104
-21 25 -60 35 -88 23z"/>
<path d="M2403 5208 c-12 -6 -26 -22 -31 -37 -20 -56 24 -101 100 -101 l47 0
3 -196 c3 -220 5 -224 78 -224 64 0 68 11 74 225 3 105 5 191 5 193 1 1 24 2
51 2 37 0 55 5 70 20 31 31 30 85 -2 113 -18 15 -42 17 -197 16 -102 0 -185
-5 -198 -11z"/>
<path d="M3645 5196 l-25 -25 0 -225 c0 -124 4 -236 10 -250 15 -42 42 -48
197 -48 115 0 149 4 168 16 30 20 41 59 27 91 -15 32 -56 41 -184 44 l-58 1 0
35 0 35 79 0 c60 0 84 4 99 18 32 26 37 63 12 95 -19 24 -28 26 -103 29 -80 3
-82 3 -85 30 l-3 26 101 4 c97 3 103 4 126 31 29 34 30 57 5 88 -19 23 -25 24
-180 27 -160 3 -161 3 -186 -22z"/>
<path d="M6498 2460 c-82 -25 -130 -83 -131 -159 -1 -87 51 -144 162 -178 67
-20 81 -30 81 -54 0 -40 -61 -50 -112 -19 -94 57 -185 -25 -110 -100 31 -31
115 -60 171 -60 39 0 114 31 145 58 26 24 56 97 56 138 0 42 -20 93 -47 117
-11 9 -58 30 -104 46 -75 25 -84 31 -87 54 -3 21 2 28 21 32 14 4 37 0 53 -8
55 -28 88 -30 117 -7 55 43 24 113 -61 138 -44 14 -114 14 -154 2z"/>
<path d="M6935 2445 l-25 -24 0 -235 c0 -232 0 -235 23 -262 17 -20 33 -27 57
-27 24 0 40 7 57 27 20 23 23 38 23 107 l0 79 95 0 95 0 0 -72 c0 -82 14 -117
52 -135 34 -17 81 -1 97 33 7 16 11 104 11 255 l0 230 -25 24 c-29 30 -74 32
-106 6 -21 -17 -24 -28 -26 -103 l-2 -83 -95 -3 -96 -3 0 81 c0 73 -3 83 -25
105 -15 16 -36 25 -55 25 -19 0 -40 -9 -55 -25z"/>
<path d="M7760 2461 c-73 -22 -132 -75 -171 -151 -35 -68 -34 -176 4 -252 107
-217 377 -220 490 -6 100 190 -36 421 -246 417 -29 0 -63 -4 -77 -8z m127
-140 c93 -43 107 -180 26 -251 -26 -24 -43 -30 -78 -30 -135 0 -169 230 -41
286 40 17 43 17 93 -5z"/>
<path d="M8267 2442 c-15 -16 -17 -49 -17 -261 l0 -242 25 -24 c13 -14 36 -25
50 -25 14 0 37 11 50 25 21 20 25 34 25 80 l0 55 40 0 c109 0 183 37 220 110
43 85 34 173 -25 239 -45 50 -88 61 -232 61 -103 0 -122 -3 -136 -18z m260
-138 c37 -51 -8 -114 -82 -114 l-45 0 0 71 0 72 57 -6 c38 -4 62 -12 70 -23z"/>
<path d="M2842 2366 c-31 -67 -69 -103 -136 -131 l-39 -16 49 -23 c65 -31 101
-69 134 -140 l27 -60 21 46 c28 63 85 123 144 151 l50 24 -56 27 c-62 30 -107
79 -133 143 -10 24 -21 43 -25 43 -3 0 -20 -29 -36 -64z"/>
</g>
</svg>
